<svg width="66" height="12" viewBox="0 0 66 12" fill="none" xmlns="http://www.w3.org/2000/svg">
<path d="M0.818182 9L2.26705 0.272727H6.95455L6.90341 0.545454H2.48864L1.84091 4.5H5.84659L5.79545 4.77273H1.78977L1.09091 9H0.818182ZM9.25249 9.13636C8.89453 9.13636 8.57635 9.0625 8.29794 8.91477C8.02237 8.76705 7.81499 8.55114 7.67578 8.26705C7.53942 7.98295 7.50249 7.63636 7.56499 7.22727C7.60476 7.00568 7.67578 6.7983 7.77805 6.60511C7.88317 6.40909 8.038 6.23153 8.24254 6.07244C8.44993 5.91335 8.72408 5.77699 9.06499 5.66335C9.40589 5.54972 9.83203 5.46307 10.3434 5.40341C10.6502 5.36932 10.9414 5.32955 11.217 5.28409C11.4925 5.23864 11.7212 5.17045 11.9031 5.07955C12.0849 4.98864 12.19 4.85795 12.2184 4.6875L12.2866 4.29545C12.3718 3.79261 12.2781 3.3892 12.0053 3.08523C11.7326 2.77841 11.315 2.625 10.7525 2.625C10.2923 2.625 9.8647 2.72869 9.46982 2.93608C9.07777 3.14347 8.78374 3.42614 8.58771 3.78409L8.34908 3.68182C8.4968 3.40909 8.69283 3.1733 8.93714 2.97443C9.1843 2.77557 9.46271 2.62216 9.77237 2.5142C10.0849 2.40625 10.4116 2.35227 10.7525 2.35227C11.0849 2.35227 11.3746 2.40199 11.6218 2.50142C11.869 2.59801 12.0692 2.73438 12.2227 2.91051C12.3789 3.08381 12.4854 3.28835 12.5423 3.52415C12.6019 3.75994 12.6076 4.01705 12.5593 4.29545L11.7752 9H11.5025L11.7241 7.67045H11.69C11.5082 7.96591 11.2894 8.22443 11.0337 8.44602C10.7809 8.66477 10.5025 8.83523 10.1985 8.95739C9.89737 9.0767 9.58203 9.13636 9.25249 9.13636ZM9.25249 8.86364C9.66726 8.86364 10.065 8.75284 10.4457 8.53125C10.8292 8.30682 11.1559 7.99574 11.4258 7.59801C11.6985 7.19744 11.8775 6.73295 11.9627 6.20455L12.1332 5.21591C12.0451 5.27557 11.94 5.32812 11.8178 5.37358C11.6985 5.41903 11.565 5.46023 11.4173 5.49716C11.2724 5.53125 11.1147 5.56108 10.9442 5.58665C10.7766 5.61222 10.5991 5.63636 10.4116 5.65909C9.81499 5.72727 9.33771 5.83097 8.97976 5.97017C8.6218 6.10937 8.35476 6.28409 8.17862 6.49432C8.00249 6.70455 7.88885 6.94886 7.83771 7.22727C7.76101 7.72159 7.85618 8.1179 8.12322 8.41619C8.39027 8.71449 8.76669 8.86364 9.25249 8.86364ZM14.1254 9L15.2163 2.45455H15.489L15.3185 3.49432H15.3526C15.5572 3.15341 15.8526 2.88068 16.239 2.67614C16.6282 2.47159 17.0487 2.36932 17.5004 2.36932C17.5344 2.36932 17.5572 2.36932 17.5685 2.36932C17.5799 2.36932 17.6026 2.36932 17.6367 2.36932L17.5856 2.64205C17.5515 2.64205 17.5288 2.64205 17.5174 2.64205C17.506 2.64205 17.4833 2.64205 17.4492 2.64205C17.0629 2.64205 16.7049 2.72585 16.3754 2.89347C16.0487 3.06108 15.7745 3.29261 15.5529 3.58807C15.3342 3.88352 15.1935 4.22159 15.131 4.60227L14.3981 9H14.1254ZM18.2322 9L19.6811 0.272727H19.9538L19.3232 4.125H19.3572C19.5277 3.76136 19.7422 3.44744 20.0007 3.18324C20.2592 2.91619 20.5476 2.71165 20.8658 2.5696C21.1839 2.42472 21.5163 2.35227 21.8629 2.35227C22.3743 2.35227 22.7947 2.50142 23.1243 2.79972C23.4538 3.09801 23.6797 3.50284 23.8018 4.0142C23.924 4.52557 23.9311 5.10227 23.8232 5.74432C23.7152 6.38636 23.5163 6.96307 23.2266 7.47443C22.9368 7.9858 22.5788 8.39062 22.1527 8.68892C21.7266 8.98722 21.255 9.13636 20.7379 9.13636C20.3857 9.13636 20.0746 9.06534 19.8047 8.9233C19.5376 8.77841 19.3189 8.57386 19.1484 8.30966C18.9808 8.04261 18.8686 7.72727 18.8118 7.36364H18.7777L18.505 9H18.2322ZM19.0504 5.74432C18.9538 6.33523 18.9524 6.86648 19.0462 7.33807C19.1428 7.80682 19.3317 8.17898 19.6129 8.45455C19.897 8.72727 20.272 8.86364 20.7379 8.86364C21.1982 8.86364 21.6229 8.72727 22.0121 8.45455C22.4041 8.17898 22.7337 7.80682 23.0007 7.33807C23.2706 6.86648 23.4538 6.33523 23.5504 5.74432C23.647 5.15341 23.6456 4.62358 23.5462 4.15483C23.4496 3.68324 23.2592 3.31108 22.9751 3.03835C22.6939 2.76278 22.3232 2.625 21.8629 2.625C21.4027 2.625 20.9766 2.76278 20.5845 3.03835C20.1953 3.31108 19.8658 3.68324 19.5959 4.15483C19.3288 4.62358 19.147 5.15341 19.0504 5.74432ZM26.8189 9.13636C26.4609 9.13636 26.1428 9.0625 25.8643 8.91477C25.5888 8.76705 25.3814 8.55114 25.2422 8.26705C25.1058 7.98295 25.0689 7.63636 25.1314 7.22727C25.1712 7.00568 25.2422 6.7983 25.3445 6.60511C25.4496 6.40909 25.6044 6.23153 25.8089 6.07244C26.0163 5.91335 26.2905 5.77699 26.6314 5.66335C26.9723 5.54972 27.3984 5.46307 27.9098 5.40341C28.2166 5.36932 28.5078 5.32955 28.7834 5.28409C29.0589 5.23864 29.2876 5.17045 29.4695 5.07955C29.6513 4.98864 29.7564 4.85795 29.7848 4.6875L29.853 4.29545C29.9382 3.79261 29.8445 3.3892 29.5717 3.08523C29.299 2.77841 28.8814 2.625 28.3189 2.625C27.8587 2.625 27.4311 2.72869 27.0362 2.93608C26.6442 3.14347 26.3501 3.42614 26.1541 3.78409L25.9155 3.68182C26.0632 3.40909 26.2592 3.1733 26.5036 2.97443C26.7507 2.77557 27.0291 2.62216 27.3388 2.5142C27.6513 2.40625 27.978 2.35227 28.3189 2.35227C28.6513 2.35227 28.9411 2.40199 29.1882 2.50142C29.4354 2.59801 29.6357 2.73438 29.7891 2.91051C29.9453 3.08381 30.0518 3.28835 30.1087 3.52415C30.1683 3.75994 30.174 4.01705 30.1257 4.29545L29.3416 9H29.0689L29.2905 7.67045H29.2564C29.0746 7.96591 28.8558 8.22443 28.6001 8.44602C28.3473 8.66477 28.0689 8.83523 27.7649 8.95739C27.4638 9.0767 27.1484 9.13636 26.8189 9.13636ZM26.8189 8.86364C27.2337 8.86364 27.6314 8.75284 28.0121 8.53125C28.3956 8.30682 28.7223 7.99574 28.9922 7.59801C29.2649 7.19744 29.4439 6.73295 29.5291 6.20455L29.6996 5.21591C29.6115 5.27557 29.5064 5.32812 29.3842 5.37358C29.2649 5.41903 29.1314 5.46023 28.9837 5.49716C28.8388 5.53125 28.6811 5.56108 28.5107 5.58665C28.343 5.61222 28.1655 5.63636 27.978 5.65909C27.3814 5.72727 26.9041 5.83097 26.5462 5.97017C26.1882 6.10937 25.9212 6.28409 25.745 6.49432C25.5689 6.70455 25.4553 6.94886 25.4041 7.22727C25.3274 7.72159 25.4226 8.1179 25.6896 8.41619C25.9567 8.71449 26.3331 8.86364 26.8189 8.86364ZM32.3395 6.35795L32.4247 5.84659H32.527L36.5327 2.45455H36.9588L33.4815 5.38636L33.4474 5.42045L32.3395 6.35795ZM31.6918 9L33.1406 0.272727H33.4134L31.9645 9H31.6918ZM35.6463 9L33.3452 5.38636L33.5668 5.21591L35.9702 9H35.6463ZM42.3121 3.83523L42.0394 3.88636C41.994 3.60227 41.9087 3.3679 41.7837 3.18324C41.6587 2.99574 41.4925 2.85653 41.2852 2.76562C41.0806 2.67188 40.832 2.625 40.5394 2.625C40.0053 2.625 39.5522 2.76278 39.18 3.03835C38.8079 3.31392 38.5849 3.67045 38.511 4.10795C38.457 4.44602 38.5181 4.72727 38.6942 4.9517C38.8732 5.17614 39.1758 5.34375 39.6019 5.45455L40.5906 5.71023C41.0508 5.82955 41.3803 6.03693 41.5792 6.33239C41.7809 6.625 41.8491 6.97443 41.7837 7.38068C41.7269 7.7358 41.5849 8.04545 41.3576 8.30966C41.1303 8.57102 40.842 8.77415 40.4925 8.91903C40.146 9.06392 39.7582 9.13636 39.3292 9.13636C38.744 9.13636 38.288 8.9929 37.9613 8.70597C37.6374 8.41903 37.4627 8.01136 37.4371 7.48295L37.7099 7.44886C37.7269 7.90909 37.8732 8.25994 38.1488 8.50142C38.4244 8.7429 38.8178 8.86364 39.3292 8.86364C39.9087 8.86364 40.4016 8.72017 40.8079 8.43324C41.2141 8.14347 41.4542 7.76989 41.5281 7.3125C41.582 6.97727 41.5224 6.69744 41.3491 6.47301C41.1758 6.24858 40.8888 6.08523 40.4883 5.98295L39.5167 5.72727C39.0309 5.59943 38.6786 5.3892 38.4599 5.09659C38.244 4.80398 38.1701 4.4517 38.2383 4.03977C38.2951 3.7017 38.4286 3.40625 38.6388 3.15341C38.8491 2.90057 39.1161 2.70455 39.44 2.56534C39.7667 2.4233 40.1275 2.35227 40.5224 2.35227C41.0366 2.35227 41.4442 2.47869 41.7454 2.73153C42.0465 2.98153 42.2354 3.34943 42.3121 3.83523ZM43.2158 4.68C43.2158 4.16 43.3078 3.652 43.4918 3.156C43.6838 2.652 43.9598 2.196 44.3198 1.788C44.6798 1.372 45.1198 1.044 45.6398 0.804C46.1598 0.556 46.7518 0.431999 47.4158 0.431999C48.1998 0.431999 48.8758 0.604 49.4438 0.948C50.0198 1.292 50.4478 1.74 50.7278 2.292L49.4557 3.168C49.3118 2.848 49.1238 2.596 48.8918 2.412C48.6598 2.22 48.4118 2.088 48.1478 2.016C47.8838 1.936 47.6238 1.896 47.3678 1.896C46.9518 1.896 46.5878 1.98 46.2758 2.148C45.9718 2.316 45.7158 2.536 45.5078 2.808C45.2998 3.08 45.1438 3.384 45.0398 3.72C44.9438 4.056 44.8958 4.392 44.8958 4.728C44.8958 5.104 44.9558 5.468 45.0758 5.82C45.1958 6.164 45.3638 6.472 45.5798 6.744C45.8038 7.008 46.0678 7.22 46.3717 7.38C46.6838 7.532 47.0238 7.608 47.3918 7.608C47.6558 7.608 47.9238 7.564 48.1958 7.476C48.4678 7.388 48.7198 7.248 48.9518 7.056C49.1838 6.864 49.3638 6.616 49.4918 6.312L50.8478 7.092C50.6798 7.516 50.4038 7.876 50.0198 8.172C49.6438 8.468 49.2198 8.692 48.7478 8.844C48.2758 8.996 47.8078 9.072 47.3438 9.072C46.7358 9.072 46.1798 8.948 45.6758 8.7C45.1718 8.444 44.7358 8.108 44.3678 7.692C44.0078 7.268 43.7238 6.796 43.5158 6.276C43.3158 5.748 43.2158 5.216 43.2158 4.68ZM54.6829 9.12C54.1709 9.12 53.7109 9.036 53.3029 8.868C52.8949 8.692 52.5469 8.452 52.2589 8.148C51.9789 7.844 51.7629 7.496 51.6109 7.104C51.4589 6.712 51.3829 6.3 51.3829 5.868C51.3829 5.428 51.4589 5.012 51.6109 4.62C51.7629 4.228 51.9789 3.88 52.2589 3.576C52.5469 3.272 52.8949 3.036 53.3029 2.868C53.7109 2.692 54.1709 2.604 54.6829 2.604C55.1949 2.604 55.6509 2.692 56.0509 2.868C56.4589 3.036 56.8069 3.272 57.0949 3.576C57.3829 3.88 57.5989 4.228 57.7429 4.62C57.8949 5.012 57.9709 5.428 57.9709 5.868C57.9709 6.3 57.8949 6.712 57.7429 7.104C57.5989 7.496 57.3829 7.844 57.0949 8.148C56.8149 8.452 56.4709 8.692 56.0629 8.868C55.6549 9.036 55.1949 9.12 54.6829 9.12ZM53.0389 5.868C53.0389 6.236 53.1109 6.564 53.2549 6.852C53.3989 7.132 53.5949 7.352 53.8429 7.512C54.0909 7.672 54.3709 7.752 54.6829 7.752C54.9869 7.752 55.2629 7.672 55.5109 7.512C55.7589 7.344 55.9549 7.12 56.0989 6.84C56.2509 6.552 56.3269 6.224 56.3269 5.856C56.3269 5.496 56.2509 5.172 56.0989 4.884C55.9549 4.596 55.7589 4.372 55.5109 4.212C55.2629 4.052 54.9869 3.972 54.6829 3.972C54.3709 3.972 54.0909 4.056 53.8429 4.224C53.5949 4.384 53.3989 4.608 53.2549 4.896C53.1109 5.176 53.0389 5.5 53.0389 5.868ZM61.5162 9.036C61.1002 9.036 60.7162 8.956 60.3642 8.796C60.0202 8.628 59.7202 8.396 59.4642 8.1C59.2162 7.804 59.0242 7.464 58.8882 7.08C58.7522 6.696 58.6842 6.288 58.6842 5.856C58.6842 5.4 58.7562 4.976 58.9002 4.584C59.0442 4.192 59.2442 3.848 59.5002 3.552C59.7642 3.248 60.0722 3.016 60.4242 2.856C60.7842 2.688 61.1802 2.604 61.6122 2.604C62.1002 2.604 62.5282 2.716 62.8962 2.94C63.2642 3.156 63.5682 3.448 63.8082 3.816V2.712H65.2122V8.7C65.2122 9.324 65.0602 9.856 64.7562 10.296C64.4602 10.744 64.0482 11.084 63.5202 11.316C62.9922 11.556 62.3922 11.676 61.7202 11.676C61.0402 11.676 60.4642 11.56 59.9922 11.328C59.5202 11.104 59.1162 10.784 58.7802 10.368L59.6562 9.516C59.8962 9.812 60.1962 10.044 60.5562 10.212C60.9242 10.38 61.3122 10.464 61.7202 10.464C62.0642 10.464 62.3762 10.4 62.6562 10.272C62.9442 10.152 63.1722 9.96 63.3402 9.696C63.5162 9.44 63.6042 9.108 63.6042 8.7V7.908C63.3962 8.268 63.1002 8.548 62.7162 8.748C62.3402 8.94 61.9402 9.036 61.5162 9.036ZM62.0562 7.752C62.2322 7.752 62.4002 7.724 62.5602 7.668C62.7202 7.612 62.8682 7.536 63.0042 7.44C63.1402 7.344 63.2602 7.232 63.3642 7.104C63.4682 6.968 63.5482 6.832 63.6042 6.696V5.196C63.5082 4.948 63.3722 4.732 63.1962 4.548C63.0282 4.364 62.8362 4.224 62.6202 4.128C62.4122 4.024 62.1922 3.972 61.9602 3.972C61.7122 3.972 61.4882 4.024 61.2882 4.128C61.0882 4.232 60.9162 4.38 60.7722 4.572C60.6282 4.756 60.5162 4.964 60.4362 5.196C60.3642 5.42 60.3282 5.656 60.3282 5.904C60.3282 6.16 60.3722 6.4 60.4602 6.624C60.5482 6.848 60.6682 7.044 60.8202 7.212C60.9802 7.38 61.1642 7.512 61.3722 7.608C61.5882 7.704 61.8162 7.752 62.0562 7.752Z" fill="black"/>
</svg>
